<svg width="283" height="479" viewBox="0 0 283 479" fill="none" xmlns="http://www.w3.org/2000/svg">
<ellipse cx="141.5" cy="239.5" rx="141.5" ry="239.5" fill="#FFC60B"/>
<ellipse cx="147" cy="239.5" rx="117" ry="202.5" fill="#FF8B00"/>
<ellipse cx="150" cy="238.5" rx="107" ry="192.5" fill="#FEFFDB"/>
<ellipse cx="150.5" cy="239" rx="7.5" ry="12" fill="#B43F3F"/>
<path d="M148.5 52L154 65L148.5 78L143 65L148.5 52Z" fill="#B43F3F"/>
<path d="M148.5 397L154 410L148.5 423L143 410L148.5 397Z" fill="#B43F3F"/>
<path d="M202.5 90L208 103L202.5 116L197 103L202.5 90Z" fill="#B43F3F"/>
<path d="M92.5 90L98 103L92.5 116L87 103L92.5 90Z" fill="#B43F3F"/>
<path d="M230.5 153L236 166L230.5 179L225 166L230.5 153Z" fill="#B43F3F"/>
<path d="M67.5 153L73 166L67.5 179L62 166L67.5 153Z" fill="#B43F3F"/>
<path d="M244.5 232L250 245L244.5 258L239 245L244.5 232Z" fill="#B43F3F"/>
<path d="M58.5 232L64 245L58.5 258L53 245L58.5 232Z" fill="#B43F3F"/>
<path d="M230.5 312L236 325L230.5 338L225 325L230.5 312Z" fill="#B43F3F"/>
<path d="M69.5 312L75 325L69.5 338L64 325L69.5 312Z" fill="#B43F3F"/>
<path d="M202.5 369L208 382L202.5 395L197 382L202.5 369Z" fill="#B43F3F"/>
<path d="M96.5 369L102 382L96.5 395L91 382L96.5 369Z" fill="#B43F3F"/>
<path d="M149.003 233.081L188.456 185L161.495 238.245L150.6 241.542L149.003 233.081Z" fill="#B43F3F"/>
<path d="M162.635 235.399L239.275 266.787L158.033 252.899L151 240.528L162.635 235.399Z" fill="#B43F3F"/>
<path d="M119.5 258.198L64 262.407L114 239.543L153.214 239.543L119.5 258.198Z" fill="#B43F3F"/>
</svg>
